<?xml version="1.0" encoding="utf-8"?>
<!-- Generator: Adobe Illustrator 23.0.3, SVG Export Plug-In . SVG Version: 6.00 Build 0)  -->
<svg version="1.1"
	 id="svg8" inkscape:version="0.92.2 (5c3e80d, 2017-08-06)" sodipodi:docname="Genie logo.svg" xmlns:cc="http://creativecommons.org/ns#" xmlns:dc="http://purl.org/dc/elements/1.1/" xmlns:inkscape="http://www.inkscape.org/namespaces/inkscape" xmlns:rdf="http://www.w3.org/1999/02/22-rdf-syntax-ns#" xmlns:sodipodi="http://sodipodi.sourceforge.net/DTD/sodipodi-0.dtd" xmlns:svg="http://www.w3.org/2000/svg"
	 xmlns="http://www.w3.org/2000/svg" xmlns:xlink="http://www.w3.org/1999/xlink" x="0px" y="0px" viewBox="0 0 496.9 496.9"
	 style="enable-background:new 0 0 496.9 496.9;" xml:space="preserve">
<style type="text/css">
	.st0{fill:#21B4E7;}
</style>
<g>
	<path class="st0" d="M321,140.7c-11.8-24.1-35.1-39.3-66.5-39.3l0,0c-52.4,0-99.9,46.5-108.1,105.4c-8.2,59,28.1,107.2,80.5,107.2
		c24.7,0,45.5-11.2,61.8-28.4c-1.9,18.7-11.6,70.7-59.3,70.7c-36.4,0-43.6-29.4-43.6-29.4H129c10.9,41.6,38.5,72.9,96.3,72.9
		c62.1,0,103.7-38.2,115.8-91.4l46.3-203.6L321,140.7z M307.2,207.5c-5.2,34-30.6,63.4-60.3,63.4c-28.4,0-47.1-27.6-41.9-61.6
		c5.2-34,32.5-61.6,60.9-61.6l0,0C294.2,147.6,312.4,173.5,307.2,207.5z"/>
</g>
<path class="st0" d="M248.5,23c30.4,0,60,6,87.7,17.7c26.8,11.4,51,27.6,71.7,48.3c20.7,20.7,37,44.8,48.3,71.7
	c11.8,27.8,17.7,57.3,17.7,87.7c0,30.4-6,60-17.7,87.7c-11.4,26.8-27.6,51-48.3,71.7c-20.7,20.7-44.8,37-71.7,48.3
	c-27.8,11.8-57.3,17.7-87.7,17.7s-60-6-87.7-17.7c-26.8-11.4-51-27.6-71.7-48.3c-20.7-20.7-37-44.8-48.3-71.7
	C29,308.4,23,278.9,23,248.5c0-30.4,6-60,17.7-87.7c11.4-26.8,27.6-51,48.3-71.7c20.7-20.7,44.8-37,71.7-48.3
	C188.5,29,218,23,248.5,23 M248.5,0C111.2,0,0,111.2,0,248.5s111.2,248.5,248.5,248.5s248.5-111.2,248.5-248.5S385.7,0,248.5,0
	L248.5,0z"/>
</svg>
