<?xml version="1.0" encoding="UTF-8" standalone="no"?>
<svg
   xmlns:dc="http://purl.org/dc/elements/1.1/"
   xmlns:cc="http://creativecommons.org/ns#"
   xmlns:rdf="http://www.w3.org/1999/02/22-rdf-syntax-ns#"
   xmlns:svg="http://www.w3.org/2000/svg"
   xmlns="http://www.w3.org/2000/svg"
   xmlns:sodipodi="http://sodipodi.sourceforge.net/DTD/sodipodi-0.dtd"
   xmlns:inkscape="http://www.inkscape.org/namespaces/inkscape"
   viewBox="0 0 1000 240.28835"
   version="1.1"
   id="svg95"
   sodipodi:docname="A.svg"
   width="1000"
   height="240.28835"
   style="fill:none"
   inkscape:version="0.92.4 (5da689c313, 2019-01-14)">
  <metadata
     id="metadata101">
    <rdf:RDF>
      <cc:Work
         rdf:about="">
        <dc:format>image/svg+xml</dc:format>
        <dc:type
           rdf:resource="http://purl.org/dc/dcmitype/StillImage" />
        <dc:title></dc:title>
      </cc:Work>
    </rdf:RDF>
  </metadata>
  <defs
     id="defs99" />
  <sodipodi:namedview
     pagecolor="#ffffff"
     bordercolor="#111111"
     borderopacity="1"
     objecttolerance="10"
     gridtolerance="10"
     guidetolerance="10"
     inkscape:pageopacity="0"
     inkscape:pageshadow="2"
     inkscape:window-width="1920"
     inkscape:window-height="1017"
     id="namedview97"
     showgrid="false"
     fit-margin-top="0"
     fit-margin-left="0"
     fit-margin-right="0"
     fit-margin-bottom="0"
     inkscape:zoom="0.77500776"
     inkscape:cx="566.07577"
     inkscape:cy="-61.844872"
     inkscape:window-x="1912"
     inkscape:window-y="-8"
     inkscape:window-maximized="1"
     inkscape:current-layer="svg95" />
  <path
     d="M 157.29208,9.33414 93.914698,72.76799 H 157.29208 V 9.33387 26.69871 Z"
     class="stroke-super dark:stroke-superDark group-hover:stroke-superDuper transition-colors duration-300 stroke-[1.3px] transition-all duration-300"
     stroke-miterlimit="10"
     id="path61"
     style="stroke:#20808d;stroke-width:6.67467642;stroke-miterlimit:10;stroke-opacity:1"
     inkscape:connector-curvature="0" />
  <path
     d="M 93.912695,72.76799 30.531438,9.33414 v 63.43385 z"
     class="stroke-super dark:stroke-superDark group-hover:stroke-superDuper transition-colors duration-300 stroke-[1.3px] transition-all duration-300"
     stroke-miterlimit="10"
     id="path63"
     style="stroke:#20808d;stroke-width:6.67467642;stroke-miterlimit:10;stroke-opacity:1"
     inkscape:connector-curvature="0" />
  <path
     d="M 93.771192,0 V 240.28835"
     class="stroke-super dark:stroke-superDark group-hover:stroke-superDuper transition-colors duration-300 stroke-[1.3px] transition-all duration-300"
     stroke-miterlimit="10"
     id="path65"
     style="stroke:#20808d;stroke-width:6.67467642;stroke-miterlimit:10;stroke-opacity:1"
     inkscape:connector-curvature="0" />
  <path
     d="M 157.29208,136.19077 93.914698,72.75665 v 90.94112 l 63.377382,63.43346 z"
     class="stroke-super dark:stroke-superDark group-hover:stroke-superDuper transition-colors duration-300 stroke-[1.3px] transition-all duration-300"
     stroke-miterlimit="10"
     id="path67"
     style="stroke:#20808d;stroke-width:6.67467642;stroke-miterlimit:10;stroke-opacity:1"
     inkscape:connector-curvature="0" />
  <path
     d="M 30.531438,136.19077 93.912695,72.75665 v 90.94112 l -63.381257,63.43346 z"
     class="stroke-super dark:stroke-superDark group-hover:stroke-superDuper transition-colors duration-300 stroke-[1.3px] transition-all duration-300"
     stroke-miterlimit="10"
     id="path69"
     style="stroke:#20808d;stroke-width:6.67467642;stroke-miterlimit:10;stroke-opacity:1"
     inkscape:connector-curvature="0" />
  <path
     d="m 3.3373382,72.75665 v 90.57602 H 30.532439 v -27.1419 L 93.913363,72.75665 Z"
     class="stroke-super dark:stroke-superDark group-hover:stroke-superDuper transition-colors duration-300 stroke-[1.3px] transition-all duration-300"
     stroke-miterlimit="10"
     id="path71"
     style="stroke:#20808d;stroke-width:6.67467642;stroke-miterlimit:10;stroke-opacity:1"
     inkscape:connector-curvature="0" />
  <path
     d="m 93.914698,72.75665 63.377382,63.43412 v 27.1419 h 27.19931 V 72.75665 Z"
     class="stroke-super dark:stroke-superDark group-hover:stroke-superDuper transition-colors duration-300 stroke-[1.3px] transition-all duration-300"
     stroke-miterlimit="10"
     id="path73"
     style="stroke:#20808d;stroke-width:6.67467642;stroke-miterlimit:10;stroke-opacity:1"
     inkscape:connector-curvature="0" />
  <path
     d="m 370.18088,86.96036 c 3.95542,-7.40088 9.49406,-13.1044 16.62395,-17.1112 7.12255,-3.99887 15.48191,-6.00221 25.06274,-6.00221 9.58083,0 17.52236,1.9719 24.16433,5.91544 6.64998,3.94406 11.62128,9.16833 14.91457,15.68148 3.29328,6.51248 4.93993,13.64638 4.93993,21.40836 v 10.74689 h -74.56481 c 0.59871,9.31785 3.74249,16.72607 9.43065,22.218 5.68882,5.49926 13.32332,8.24122 22.91216,8.24122 7.784,0 13.7485,-1.57923 17.87678,-4.74569 4.1363,-3.1658 7.15392,-7.54973 9.07623,-13.16647 h 17.07382 c -2.2774,8.7198 -6.91764,16.27753 -13.92204,22.6652 -7.00441,6.395 -17.04178,9.58416 -30.09745,9.58416 -9.82446,0 -18.48351,-2.00307 -25.9685,-6.00186 -7.48498,-3.9988 -13.26792,-9.70231 -17.34147,-17.1112 -4.07289,-7.40823 -6.106,-16.12869 -6.106,-26.1614 0,-10.03204 1.97771,-18.7525 5.93312,-26.16072 z m 67.74196,17.1973 c 0,-8.12375 -2.09585,-14.47938 -6.28688,-19.0829 -4.19169,-4.59618 -10.77826,-6.89828 -19.76839,-6.89828 -8.38272,0 -15.24562,2.23936 -20.57135,6.7174 -5.3344,4.47804 -8.59565,10.90442 -9.79375,19.26378 z"
     class=" block fill-textMain dark:fill-textMainDark group-hover:fill-superDuper transition-colors duration-300"
     id="path75"
     style="fill:#13343b;fill-opacity:1;stroke-width:6.67467642"
     inkscape:connector-curvature="0" />
  <path
     d="m 478.28461,66.53291 v 14.87211 c 0,0.84035 0.41783,1.25684 1.26084,1.25684 0.48058,0 0.83501,-0.11814 1.0793,-0.36176 0.24429,-0.24296 0.48058,-0.71486 0.71686,-1.42972 3.1124,-9.78841 10.84101,-14.69103 23.17915,-14.69103 h 7.90281 V 82.3001 h -10.24229 c -8.02896,0 -14.01682,1.90962 -17.97156,5.73555 -3.95541,3.82592 -5.93312,10.09478 -5.93312,18.81524 v 52.85743 H 462.10119 V 66.53291 Z"
     class=" block fill-textMain dark:fill-textMainDark group-hover:fill-superDuper transition-colors duration-300"
     id="path77"
     style="fill:#13343b;fill-opacity:1;stroke-width:6.67467642"
     inkscape:connector-curvature="0" />
  <path
     d="m 607.38753,140.08411 c -4.25444,7.46295 -9.76171,13.04899 -16.52983,16.74943 -6.76746,3.69977 -14.04753,5.554 -21.8322,5.554 -15.33173,0 -26.11801,-6.08864 -32.34215,-18.27327 -0.48124,-0.95114 -1.07996,-1.43038 -1.79682,-1.43038 -0.71686,0 -1.07929,0.36177 -1.07929,1.07663 v 49.98932 H 517.63182 V 66.53351 h 16.17542 v 15.94814 c 0,0.71486 0.36243,1.07662 1.07929,1.07662 0.71686,0 1.31558,-0.47924 1.79682,-1.43038 6.22414,-12.18462 17.01042,-18.27333 32.34215,-18.27333 7.78467,0 15.06474,1.85409 21.8322,5.55407 6.76812,3.70044 12.27539,9.28647 16.52983,16.7501 4.25444,7.46295 6.38233,16.45841 6.38233,26.96235 0,10.50394 -2.12789,19.4994 -6.38233,26.96303 z M 588.69911,87.40756 c -5.93246,-6.15138 -13.7485,-9.23108 -23.44747,-9.23108 -9.69898,0 -17.52236,3.0797 -23.44748,9.23108 -5.93245,6.15138 -8.10706,14.723 -8.10706,25.71352 0,10.99119 2.17461,19.56214 8.10706,25.71353 5.93312,6.15138 13.7485,9.23107 23.44748,9.23107 9.69897,0 17.52236,-3.07168 23.44747,-9.23107 5.93245,-6.15139 8.89534,-14.72234 8.89534,-25.71353 0,-10.99052 -2.96289,-19.55413 -8.89534,-25.71352 z"
     class=" block fill-textMain dark:fill-textMainDark group-hover:fill-superDuper transition-colors duration-300"
     id="path79"
     style="fill:#13343b;fill-opacity:1;stroke-width:6.67467642"
     inkscape:connector-curvature="0" />
  <path
     d="m 637.23935,30.70091 v 128.9994 H 621.06394 V 30.70091 Z"
     class=" block fill-textMain dark:fill-textMainDark group-hover:fill-superDuper transition-colors duration-300"
     id="path81"
     style="fill:#13343b;fill-opacity:1;stroke-width:6.67467642"
     inkscape:connector-curvature="0" />
  <path
     d="m 650.554,86.96036 c 3.95474,-7.40088 9.49339,-13.1044 16.62662,-17.1112 7.12188,-3.99887 15.47857,-6.00221 25.05673,-6.00221 9.58484,0 17.5277,1.9719 24.169,5.91544 6.64798,3.94406 11.62062,9.16833 14.91123,15.68148 3.29729,6.51248 4.93926,13.64638 4.93926,21.40836 v 10.74689 H 661.6947 c 0.59872,9.31785 3.74383,16.72607 9.43065,22.218 5.68682,5.49926 13.32265,8.24122 22.91416,8.24122 7.78268,0 13.74316,-1.57923 17.87479,-4.74569 4.1383,-3.1658 7.15525,-7.54973 9.07756,-13.16647 h 17.07382 c -2.27607,8.7198 -6.92164,16.27753 -13.92338,22.6652 -7.00173,6.395 -17.04044,9.58416 -30.09611,9.58416 -9.82512,0 -18.48218,-2.00307 -25.97117,-6.00186 -7.48364,-3.9988 -13.26658,-9.70231 -17.34014,-17.1112 -4.07355,-7.40823 -6.10599,-16.12869 -6.10599,-26.1614 0,-10.03204 1.9777,-18.7525 5.93245,-26.16072 z m 67.74129,17.1973 c 0,-8.12375 -2.09585,-14.47938 -6.28755,-19.0829 -4.19169,-4.59618 -10.7796,-6.89828 -19.77039,-6.89828 -8.37672,0 -15.24496,2.23936 -20.57135,6.7174 -5.33307,4.47804 -8.59298,10.90442 -9.79042,19.26378 z"
     class=" block fill-textMain dark:fill-textMainDark group-hover:fill-superDuper transition-colors duration-300"
     id="path83"
     style="fill:#13343b;fill-opacity:1;stroke-width:6.67467642"
     inkscape:connector-curvature="0" />
  <path
     d="m 729.06154,156.11668 37.01108,-45.69217 -30.3631,-40.31037 v -3.5825 h 17.78801 l 25.34375,34.75591 27.31277,-34.75591 h 18.14177 v 3.76338 l -34.85516,42.82406 32.16527,42.9976 v 3.5823 h -17.42758 l -27.49299,-37.44293 -29.46203,37.44293 h -18.14844 v -3.5823 z"
     class=" block fill-textMain dark:fill-textMainDark group-hover:fill-superDuper transition-colors duration-300"
     id="path85"
     style="fill:#13343b;fill-opacity:1;stroke-width:6.67467642"
     inkscape:connector-curvature="0" />
  <path
     d="M 847.77733,36.20679 V 56.37372 H 828.888 V 36.20679 Z m -0.98117,123.5002 H 830.61674 V 66.53191 h 16.17942 z"
     class=" block fill-textMain dark:fill-textMainDark group-hover:fill-superDuper transition-colors duration-300"
     id="path87"
     style="fill:#13343b;fill-opacity:1;stroke-width:6.67467642"
     inkscape:connector-curvature="0" />
  <path
     d="m 851.89561,66.53505 h 17.59444 V 41.45008 h 16.17942 v 25.08497 h 18.51555 l 4.54546,13.65451 h -23.06101 v 44.57616 c 0,6.08864 -0.15352,10.59805 -0.45388,13.52824 -0.30036,2.93018 -0.4472,4.69029 -0.4472,5.28767 0,0.84035 0.23361,1.49246 0.71419,1.9717 0.48058,0.47925 1.13469,0.71486 1.98238,0.71486 0.59404,0 2.36283,-0.14951 5.29969,-0.44787 2.93018,-0.29836 7.45561,-0.44787 13.56962,-0.44787 h 6.28754 v 14.32986 h -12.57509 c -10.3057,0 -17.9749,-2.50634 -23.00093,-7.52636 -5.02603,-5.02003 -7.54906,-12.65652 -7.54906,-22.93219 V 80.18956 H 851.90896 V 66.53505 Z"
     class=" block fill-textMain dark:fill-textMainDark group-hover:fill-superDuper transition-colors duration-300"
     id="path89"
     style="fill:#13343b;fill-opacity:1;stroke-width:6.67467642"
     inkscape:connector-curvature="0" />
  <path
     d="m 909.05754,66.53164 h 16.48645 l 26.77212,78.17001 c 0.36711,0.95848 0.93446,2.22333 2.76999,2.22333 1.83554,0 2.40289,-1.26485 2.76332,-2.22333 L 984.62155,66.53164 H 1000 v 3.5825 l -33.49353,100.51262 c -2.87678,8.60299 -6.91496,14.60485 -12.12121,18.00694 -5.21292,3.40141 -11.26685,5.10613 -21.33894,5.10613 h -17.24736 v -14.3292 h 13.12241 c 4.1917,0 7.60246,0.14885 10.23896,0.4472 2.62982,0.29903 4.31184,0.44787 5.0327,0.44787 2.03578,0 3.41076,-0.89507 4.1383,-2.68655 l 5.03271,-13.61501 c 0.60072,-1.42971 0.65412,-2.50634 0.18021,-3.22854 -0.24029,-0.47924 -0.53397,-0.77827 -0.8944,-0.89574 -0.36044,-0.11814 -0.90108,-0.18088 -1.61528,-0.18088 H 940.07476 L 909.07089,66.53164 Z"
     class=" block fill-textMain dark:fill-textMainDark group-hover:fill-superDuper transition-colors duration-300"
     id="path91"
     style="fill:#13343b;fill-opacity:1;stroke-width:6.67467642"
     inkscape:connector-curvature="0" />
  <path
     d="m 353.97877,140.23362 c -4.25443,7.46362 -9.76171,13.04899 -16.52983,16.74943 -6.76746,3.70044 -14.04752,5.55467 -21.8322,5.55467 -15.33173,0 -26.11801,-6.08864 -32.34214,-18.27393 -0.48058,-0.95048 -1.07997,-1.42972 -1.79683,-1.42972 -0.71686,0 -1.07929,0.3611 -1.07929,1.07663 v 49.98932 H 264.22307 V 66.68342 h 16.17541 v 15.94841 c 0,0.71486 0.36243,1.07596 1.07929,1.07596 0.71686,0 1.31625,-0.47925 1.79683,-1.42972 6.22413,-12.18529 17.01041,-18.27359 32.34214,-18.27359 7.78468,0 15.06474,1.85409 21.8322,5.55433 6.76812,3.70044 12.2754,9.28581 16.52983,16.74943 4.25444,7.46362 6.38233,16.45908 6.38233,26.96302 0,10.50327 -2.12789,19.49873 -6.38233,26.96236 z M 335.29035,87.55774 c -5.93245,-6.15138 -13.7485,-9.23108 -23.44747,-9.23108 -9.69897,0 -17.52236,3.0797 -23.44747,9.23108 -5.93245,6.15138 -8.10706,14.72233 -8.10706,25.71352 0,10.99053 2.17461,19.56214 8.10706,25.71353 5.93312,6.15138 13.7485,9.23107 23.44747,9.23107 9.69897,0 17.52236,-3.07168 23.44747,-9.23107 5.93245,-6.15139 8.89534,-14.723 8.89534,-25.71353 0,-10.99119 -2.96289,-19.55413 -8.89534,-25.71352 z"
     class=" block fill-textMain dark:fill-textMainDark group-hover:fill-superDuper transition-colors duration-300"
     id="path93"
     style="fill:#13343b;fill-opacity:1;stroke-width:6.67467642"
     inkscape:connector-curvature="0" />
</svg>
