<svg xmlns="http://www.w3.org/2000/svg" xml:space="preserve" x="0px" y="0px" viewBox="0 0 831.809 134.519"><path d="M712.766 55.944c3.2 13.5 6.4 26.8 9.6 40 .2 0 .5.1.7.1 1.3-3.5 2.6-6.9 3.8-10.4l21-59.1c1.5-4.1 5-6.8 9.1-7 4.1-.2 8 2.5 9.6 6.8 4.5 12.4 8.9 24.8 13.3 37.2 3.8 10.8 7.7 21.5 12.2 32.3 1.5-6.2 3.1-12.4 4.6-18.7 5.2-21.6 10.3-43.2 15.5-64.8 1.5-6.4 6.4-9.5 12.4-8.2 5.3 1.2 8.3 6.5 6.9 12.5-8.2 34.2-16.4 68.4-24.7 102.6-1.6 6.8-6.5 10.9-12.5 11.3-7.2.4-12.7-3.8-14.9-10-6.7-19.1-13.6-38.1-20.3-57.2-.5-1.4-1-2.7-1.8-4.7-3.9 10.9-7.6 21.2-11.3 31.6-3.6 10-7.1 20.1-10.7 30.1-2.5 7-7.8 10.5-14.9 10.1-6-.3-10.7-4.6-12.4-11.4-8.3-34.2-16.5-68.4-24.7-102.6-1.4-5.7 1.7-11.1 6.8-12.3 5.9-1.4 10.8 1.9 12.4 8.3 3.4 14.4 6.8 28.8 10.3 43.5zM522.566 89.944v29c0 5.6-2 9-6.2 10.6-4.3 1.7-8.3.5-12-3.8-23.4-26.8-46.7-53.6-70.1-80.4-1.2-1.4-2.5-2.7-4.3-4.8v78.6c0 7.9-6.1 12.7-13 10.5-3.3-1.1-5.5-3.4-6.3-6.8-.3-1.3-.4-2.8-.4-4.1v-103.3c0-2 .4-4.3 1.2-6 3.2-6.4 11.3-7.2 16.3-1.5 9.3 10.5 18.5 21.2 27.8 31.8 15.6 17.9 31.1 35.7 47.3 54.2v-77.2c0-1.6 0-3.3.4-4.8 1.1-4.8 5.6-8 10.3-7.6 5 .4 8.9 4.3 9 9.4.2 6.9.1 13.7.1 20.6-.1 18.3-.1 36.8-.1 55.6zM234.066 119.844c-.6 8.6-4.3 12.4-12.5 12.5-14.1.1-28.1.1-42.2 0-8.4-.1-12.3-4-12.3-12.5-.1-35.2-.1-70.4 0-105.7 0-7.6 3.9-11.8 11.5-12 14.5-.2 29.1-.2 43.6 0 8.2.1 12 4.5 12 13-.1 34.8-.1 69.6-.1 104.7m-21.1-47v-52.4h-24.8v93.5h24.8v-41.1zM38.166 55.544c7.7 5.6 15.2 11.1 22.8 16.4 4.3 3 6.3 7 6.3 12.1 0 12 .1 24 0 35.9-.1 7.8-3.9 12.1-11.7 12.3-14.6.3-29.3.3-44 0-7.8-.1-11.4-4.3-11.5-12.3-.1-11.6 0-23.2 0-35.4 3.6 1.9 6.9 3.7 10.2 5.4 3.6 1.9 8.4 3.1 10.2 6.1 1.8 3 .5 7.9.6 12v6h24.8c0-8.6.1-17-.1-25.4 0-1-1.2-2.2-2.1-2.8-12.6-9.3-25.2-18.6-37.9-27.7-3.7-2.7-5.7-6.1-5.7-10.5-.1-11.6-.1-23.2.1-34.9.1-6.6 4.4-10.4 11.8-10.6 9.3-.2 18.6-.1 27.9-.1 5 0 10-.1 15 .1 8.4.3 12.3 4.4 12.3 12.7.1 10.8 0 21.6 0 32.8-6.8-3.7-13.3-7.2-19.7-10.9-.7-.4-1.2-1.8-1.3-2.8-.1-4.4-.1-8.8-.1-13.6-7.8 0-15.5-.1-23.1.1-.7 0-1.8 1.7-1.8 2.7-.2 6.2-.2 12.3 0 18.5 0 1 .9 2.3 1.8 2.9 5 3.7 10 7.2 15.2 11zM89.566 132.344h-6.1V1.944h51.9c2.3 0 4.7.2 6.9.6 4.6.9 7.3 4 8 8.5.4 2.4.4 4.8.4 7.2v54.1c0 1 0 2.1-.1 3.1-.7 7.7-4.4 11.3-12.1 11.5-10 .2-20 .1-30 .1h-4.1v45.2c-5 .1-9.7.1-14.8.1m39.9-95.8v-16.1h-24.9v48.7h24.9v-32.6z"/><path fill="#2AFFCC" d="M667.766 115.944c-7.4 12.5-18.4 18.4-32.4 18.5-20.1.1-40.3.1-60.4 0-21.5 0-36.9-15-37.2-36.4-.3-20.5-.3-41 0-61.4.3-21.7 15.6-36.5 37.4-36.6 20.5 0 41-.1 61.4 0 17 .1 31.2 11.6 34.8 28.2.6 2.8.8 5.8.8 8.7.1 20.2.1 40.5 0 60.7.1 6.3-1.2 12.4-4.4 18.3m-11.1-92.9c-5-7.6-12.2-11.2-21.2-11.2h-60.7c-15 0-25.1 10.2-25.1 25.2v59.3c0 16.3 9.8 26.1 26 26.1h59c15.8 0 25.7-9.9 25.7-25.7 0-19.9.2-39.8-.1-59.7-.1-4.4-2.1-9-3.6-14z"/><path d="M346.466 89.944c3-16.1 6.1-31.9 9.1-47.7 2.5-13.3 5.1-26.6 7.6-40h11c-8 43.4-16.1 86.8-24.1 130.1h-12c-8-43.2-16-86.5-24.1-130.1h10.9c6.2 33 12.5 66.2 18.8 99.3h.6c.7-3.8 1.4-7.5 2.2-11.6zM271.566 13.244h-21.3v-11h55.6v10.9h-22.1v119h-11.3v-115.3c0-1.2-.4-2.4-.9-3.6z"/><path fill="#2AFFCC" d="M622.766 48.844c6.8 4.3 13.4 8.4 20 12.6 4.7 3 4.8 8.4.1 11.4-19.2 12.2-38.4 24.4-57.7 36.5-4.8 3-10.4 0-10.4-5.7-.1-24.3-.1-48.6 0-72.9 0-5.8 5.8-8.6 10.7-5.4 12.4 7.7 24.8 15.6 37.3 23.5z"/></svg>